<mxfile host="Electron" modified="2025-03-24T12:15:41.185Z" agent="Mozilla/5.0 (Windows NT 10.0; Win64; x64) AppleWebKit/537.36 (KHTML, like Gecko) draw.io/21.7.5 Chrome/114.0.5735.289 Electron/25.8.1 Safari/537.36" etag="LcV9umwh6gAziEqGjrWl" version="21.7.5" type="device">
  <diagram name="PÃ¡gina-1" id="4IjKF1oeefSW1MILUJDa">
    <mxGraphModel dx="814" dy="827" grid="1" gridSize="10" guides="1" tooltips="1" connect="1" arrows="1" fold="1" page="1" pageScale="1" pageWidth="1169" pageHeight="827" math="0" shadow="0">
      <root>
        <mxCell id="0" />
        <mxCell id="1" parent="0" />
        <mxCell id="gnJEQKHTD4k_AnkT4OKE-1" value="" style="rounded=0;whiteSpace=wrap;html=1;" vertex="1" parent="1">
          <mxGeometry x="130" y="100" width="530" height="600" as="geometry" />
        </mxCell>
        <mxCell id="gnJEQKHTD4k_AnkT4OKE-2" value="sistema para una inmobilaria" style="text;html=1;strokeColor=none;fillColor=none;align=center;verticalAlign=middle;whiteSpace=wrap;rounded=0;" vertex="1" parent="1">
          <mxGeometry x="130" y="100" width="160" height="30" as="geometry" />
        </mxCell>
        <mxCell id="gnJEQKHTD4k_AnkT4OKE-3" value="Empleado" style="shape=umlActor;verticalLabelPosition=bottom;verticalAlign=top;html=1;outlineConnect=0;" vertex="1" parent="1">
          <mxGeometry x="50" y="200" width="30" height="60" as="geometry" />
        </mxCell>
        <mxCell id="gnJEQKHTD4k_AnkT4OKE-4" value="publicar inmueble del cliente" style="ellipse;whiteSpace=wrap;html=1;" vertex="1" parent="1">
          <mxGeometry x="200" y="150" width="90" height="50" as="geometry" />
        </mxCell>
        <mxCell id="gnJEQKHTD4k_AnkT4OKE-5" value="eliminar inmueble del cliente" style="ellipse;whiteSpace=wrap;html=1;" vertex="1" parent="1">
          <mxGeometry x="200" y="240" width="90" height="50" as="geometry" />
        </mxCell>
        <mxCell id="gnJEQKHTD4k_AnkT4OKE-6" value="Usuario" style="shape=umlActor;verticalLabelPosition=bottom;verticalAlign=top;html=1;outlineConnect=0;" vertex="1" parent="1">
          <mxGeometry x="50" y="420" width="30" height="60" as="geometry" />
        </mxCell>
        <mxCell id="gnJEQKHTD4k_AnkT4OKE-7" value="publicar inmueble para alquilarlos" style="ellipse;whiteSpace=wrap;html=1;" vertex="1" parent="1">
          <mxGeometry x="200" y="425" width="90" height="50" as="geometry" />
        </mxCell>
        <mxCell id="gnJEQKHTD4k_AnkT4OKE-8" value="pasar verificacion" style="ellipse;whiteSpace=wrap;html=1;" vertex="1" parent="1">
          <mxGeometry x="390" y="425" width="90" height="50" as="geometry" />
        </mxCell>
        <mxCell id="gnJEQKHTD4k_AnkT4OKE-9" value="mostrar en la web" style="ellipse;whiteSpace=wrap;html=1;" vertex="1" parent="1">
          <mxGeometry x="550" y="320" width="90" height="50" as="geometry" />
        </mxCell>
        <mxCell id="gnJEQKHTD4k_AnkT4OKE-10" value="comprar o alquilar inmueble" style="ellipse;whiteSpace=wrap;html=1;" vertex="1" parent="1">
          <mxGeometry x="200" y="520" width="90" height="50" as="geometry" />
        </mxCell>
        <mxCell id="gnJEQKHTD4k_AnkT4OKE-11" value="desaparese de la web" style="ellipse;whiteSpace=wrap;html=1;" vertex="1" parent="1">
          <mxGeometry x="390" y="520" width="90" height="50" as="geometry" />
        </mxCell>
        <mxCell id="gnJEQKHTD4k_AnkT4OKE-12" value="" style="endArrow=none;html=1;rounded=0;entryX=1;entryY=0.3333333333333333;entryDx=0;entryDy=0;exitX=0;exitY=0.5;exitDx=0;exitDy=0;entryPerimeter=0;" edge="1" parent="1" source="gnJEQKHTD4k_AnkT4OKE-5" target="gnJEQKHTD4k_AnkT4OKE-3">
          <mxGeometry width="50" height="50" relative="1" as="geometry">
            <mxPoint x="120" y="470" as="sourcePoint" />
            <mxPoint x="170" y="420" as="targetPoint" />
          </mxGeometry>
        </mxCell>
        <mxCell id="gnJEQKHTD4k_AnkT4OKE-13" value="" style="endArrow=none;html=1;rounded=0;entryX=0;entryY=0.5;entryDx=0;entryDy=0;exitX=1;exitY=0.3333333333333333;exitDx=0;exitDy=0;exitPerimeter=0;" edge="1" parent="1" source="gnJEQKHTD4k_AnkT4OKE-3" target="gnJEQKHTD4k_AnkT4OKE-4">
          <mxGeometry width="50" height="50" relative="1" as="geometry">
            <mxPoint x="120" y="470" as="sourcePoint" />
            <mxPoint x="170" y="420" as="targetPoint" />
          </mxGeometry>
        </mxCell>
        <mxCell id="gnJEQKHTD4k_AnkT4OKE-15" value="" style="endArrow=none;html=1;rounded=0;entryX=1;entryY=0.3333333333333333;entryDx=0;entryDy=0;exitX=0;exitY=0.5;exitDx=0;exitDy=0;entryPerimeter=0;" edge="1" parent="1" source="gnJEQKHTD4k_AnkT4OKE-7" target="gnJEQKHTD4k_AnkT4OKE-6">
          <mxGeometry width="50" height="50" relative="1" as="geometry">
            <mxPoint x="320" y="436" as="sourcePoint" />
            <mxPoint x="200" y="391" as="targetPoint" />
          </mxGeometry>
        </mxCell>
        <mxCell id="gnJEQKHTD4k_AnkT4OKE-16" value="" style="endArrow=none;html=1;rounded=0;entryX=1;entryY=0.3333333333333333;entryDx=0;entryDy=0;exitX=0;exitY=0.5;exitDx=0;exitDy=0;entryPerimeter=0;" edge="1" parent="1" target="gnJEQKHTD4k_AnkT4OKE-6">
          <mxGeometry width="50" height="50" relative="1" as="geometry">
            <mxPoint x="200" y="540" as="sourcePoint" />
            <mxPoint x="80" y="530" as="targetPoint" />
          </mxGeometry>
        </mxCell>
        <mxCell id="gnJEQKHTD4k_AnkT4OKE-17" value="&amp;lt;&amp;lt;include&amp;gt;&amp;gt;" style="endArrow=open;endSize=12;dashed=1;html=1;rounded=0;" edge="1" parent="1">
          <mxGeometry x="0.02" width="160" relative="1" as="geometry">
            <mxPoint x="290" y="449.41" as="sourcePoint" />
            <mxPoint x="390" y="450" as="targetPoint" />
            <mxPoint as="offset" />
          </mxGeometry>
        </mxCell>
        <mxCell id="gnJEQKHTD4k_AnkT4OKE-21" value="&amp;lt;&amp;lt;include&amp;gt;&amp;gt;" style="endArrow=open;endSize=12;dashed=1;html=1;rounded=0;" edge="1" parent="1">
          <mxGeometry x="0.0117" width="160" relative="1" as="geometry">
            <mxPoint x="290" y="544.58" as="sourcePoint" />
            <mxPoint x="390" y="545.17" as="targetPoint" />
            <mxPoint as="offset" />
          </mxGeometry>
        </mxCell>
        <mxCell id="gnJEQKHTD4k_AnkT4OKE-23" value="&amp;lt;&amp;lt;include&amp;gt;&amp;gt;" style="endArrow=open;endSize=12;dashed=1;html=1;rounded=0;entryX=0;entryY=1;entryDx=0;entryDy=0;exitX=1;exitY=0;exitDx=0;exitDy=0;" edge="1" parent="1" source="gnJEQKHTD4k_AnkT4OKE-8" target="gnJEQKHTD4k_AnkT4OKE-9">
          <mxGeometry x="0.02" width="160" relative="1" as="geometry">
            <mxPoint x="300" y="459.41" as="sourcePoint" />
            <mxPoint x="400" y="460" as="targetPoint" />
            <mxPoint as="offset" />
          </mxGeometry>
        </mxCell>
      </root>
    </mxGraphModel>
  </diagram>
</mxfile>
